<svg width="25" height="25" viewBox="0 0 25 25" xmlns="http://www.w3.org/2000/svg">
<path d="M1.46094 14.988C1.46094 15.5185 1.67165 16.0272 2.04672 16.4023C2.4218 16.7773 2.9305 16.988 3.46094 16.988L9.78094 16.988L8.82094 21.558C8.80094 21.658 8.79094 21.768 8.79094 21.878C8.79094 22.288 8.96094 22.668 9.23094 22.938L10.2909 23.988L16.8709 17.408C17.2409 17.038 17.4609 16.538 17.4609 15.988V5.98804C17.4609 5.4576 17.2502 4.9489 16.8752 4.57382C16.5001 4.19875 15.9914 3.98804 15.4609 3.98804L6.46094 3.98804C5.63094 3.98804 4.92094 4.48804 4.62094 5.20804L1.60094 12.258C1.51094 12.488 1.46094 12.728 1.46094 12.988V14.988ZM23.4609 3.98804H19.4609L19.4609 15.988H23.4609L23.4609 3.98804Z"/>
</svg>
