<svg width="25" height="25" viewBox="0 0 25 25" fill="none" xmlns="http://www.w3.org/2000/svg">
<path d="M9.29126 14.988L10.5243 15.194C10.5542 15.0149 10.5447 14.8315 10.4965 14.6564C10.4484 14.4813 10.3626 14.3188 10.2453 14.1802C10.1279 14.0416 9.98177 13.9303 9.81702 13.8539C9.65226 13.7776 9.47285 13.738 9.29126 13.738L9.29126 14.988ZM20.2913 14.988V16.238C20.9813 16.238 21.5413 15.678 21.5413 14.988H20.2913ZM18.2913 3.73804L6.93126 3.73804V6.23804L18.2913 6.23804L18.2913 3.73804ZM5.73126 16.238H9.29126L9.29126 13.738H5.73126L5.73126 16.238ZM8.05826 14.782L7.25226 19.618L9.71826 20.029L10.5243 15.194L8.05826 14.782ZM9.47126 22.238H9.68526V19.738H9.47126V22.238ZM13.2213 20.345L15.7383 16.572L13.6583 15.185L11.1423 18.959L13.2213 20.345ZM16.3613 16.238H20.2913V13.738H16.3613V16.238ZM21.5413 14.988L21.5413 6.98804H19.0413V14.988H21.5413ZM3.74426 6.35104L2.54426 12.351L4.99526 12.841L6.19526 6.84104L3.74426 6.35104ZM15.7383 16.572C15.8067 16.4693 15.8985 16.3851 16.0074 16.3268C16.1162 16.2685 16.2378 16.238 16.3613 16.238V13.738C15.8263 13.738 15.2995 13.8701 14.8278 14.1225C14.3561 14.375 13.9551 14.7399 13.6583 15.185L15.7383 16.572ZM7.25226 19.618C7.19851 19.9404 7.21565 20.2706 7.30247 20.5857C7.38929 20.9008 7.54372 21.1932 7.755 21.4426C7.96629 21.6919 8.22937 21.8923 8.52593 22.0296C8.82249 22.167 9.14443 22.2381 9.47126 22.238V19.738C9.50751 19.7381 9.5443 19.7461 9.57716 19.7614C9.61002 19.7767 9.63916 19.799 9.66257 19.8266C9.68597 19.8543 9.70307 19.8868 9.71269 19.9217C9.7223 19.9567 9.72421 19.9933 9.71826 20.029L7.25226 19.618ZM5.73126 13.738C5.62026 13.7381 5.51062 13.7136 5.41026 13.6661C5.3099 13.6187 5.22132 13.5496 5.15091 13.4638C5.0805 13.378 5.03001 13.2776 5.0031 13.1699C4.97618 13.0622 4.9735 12.9499 4.99526 12.841L2.54426 12.351C2.45004 12.8224 2.46157 13.3089 2.57801 13.7753C2.69446 14.2417 2.91293 14.6765 3.21768 15.0483C3.52242 15.4201 3.90585 15.7196 4.34033 15.9254C4.77482 16.1311 5.24953 16.2379 5.73026 16.238L5.73026 13.738H5.73126ZM6.93126 3.73804C6.17987 3.73803 5.45168 3.99838 4.87062 4.47478C4.28957 4.95119 3.89153 5.61422 3.74426 6.35104L6.19526 6.84104C6.22926 6.67091 6.3212 6.51783 6.4554 6.40788C6.5896 6.29793 6.75777 6.23791 6.93126 6.23804V3.73804ZM9.68526 22.238C10.3851 22.2381 11.0741 22.0654 11.6912 21.7351C12.3082 21.4049 12.8331 20.9274 13.2213 20.345L11.1423 18.959C10.9823 19.1988 10.7657 19.3954 10.5115 19.5313C10.2573 19.6672 9.97349 19.7382 9.68526 19.738V22.238ZM18.2913 6.23804C18.4902 6.23804 18.6809 6.31705 18.8216 6.45771C18.9622 6.59836 19.0413 6.78912 19.0413 6.98804H21.5413C21.5413 6.12608 21.1989 5.29943 20.5894 4.68994C19.9799 4.08045 19.1532 3.73804 18.2913 3.73804L18.2913 6.23804Z" fill="#EE5151"/>
<path d="M16.2913 14.988V4.98804" stroke="#EE5151" stroke-width="2.5"/>
</svg>
