<svg width="37" height="34" viewBox="0 0 37 34" fill="none" xmlns="http://www.w3.org/2000/svg">
<path fill-rule="evenodd" clip-rule="evenodd" d="M24.9365 2.81582C22.7557 2.8158 21.3499 3.05861 19.7384 3.7958C19.1418 4.06873 18.582 4.39742 18.0622 4.78089C17.5624 4.41892 17.025 4.10532 16.4531 3.84094C14.8103 3.08157 13.3324 2.8158 11.2298 2.8158C5.59852 2.8158 1.50635 7.17644 1.50635 12.8399C1.50635 17.1169 4.05802 21.2484 8.81088 25.2435C11.3056 27.3405 14.4909 29.4157 16.7721 30.5197L18.0773 31.1514L19.3825 30.5197C21.6637 29.4157 24.8489 27.3405 27.3437 25.2435C32.0966 21.2484 34.6482 17.1169 34.6482 12.8399C34.6482 7.23639 30.5175 2.83742 24.9365 2.81582ZM31.6353 12.8399C31.6353 16.1907 29.5055 19.6393 25.3289 23.1499C23.0519 25.0639 20.1245 26.9767 18.0773 27.9802C16.0301 26.9767 13.1027 25.0639 10.8257 23.1499C6.6491 19.6393 4.51925 16.1907 4.51925 12.8399C4.51925 8.65537 7.35686 5.6316 11.2298 5.6316C12.9016 5.6316 13.9317 5.81686 15.1173 6.36489C15.8176 6.68861 16.4366 7.11605 16.9724 7.65021L18.0808 8.75531L19.1792 7.64145C19.727 7.08589 20.3551 6.64872 21.063 6.32489C22.2138 5.79842 23.1797 5.6316 24.9303 5.63161C28.7553 5.64643 31.6353 8.71344 31.6353 12.8399Z" fill="white"/>
</svg>
