<svg width="24" height="25" viewBox="0 0 24 25" xmlns="http://www.w3.org/2000/svg">
<path d="M23 10.8259C23 10.2955 22.7893 9.78679 22.4142 9.41171C22.0391 9.03664 21.5304 8.82593 21 8.82593H14.68L15.64 4.25593C15.66 4.15593 15.67 4.04593 15.67 3.93593C15.67 3.52593 15.5 3.14593 15.23 2.87593L14.17 1.82593L7.59 8.40593C7.22 8.77593 7 9.27593 7 9.82593V19.8259C7 20.3564 7.21071 20.8651 7.58579 21.2401C7.96086 21.6152 8.46957 21.8259 9 21.8259H18C18.83 21.8259 19.54 21.3259 19.84 20.6059L22.86 13.5559C22.95 13.3259 23 13.0859 23 12.8259V10.8259ZM1 21.8259H5V9.82593H1V21.8259Z"/>
</svg>
