<svg width="38" height="34" viewBox="0 0 38 34" fill="none" xmlns="http://www.w3.org/2000/svg">
<path fill-rule="evenodd" clip-rule="evenodd" d="M21.3512 7.50822C21.3512 4.91768 23.6653 2.81569 26.5164 2.81569C27.1932 2.81421 27.8638 2.93441 28.4898 3.16943C29.1158 3.40445 29.6849 3.74969 30.1647 4.18543C30.6444 4.62117 31.0255 5.13889 31.286 5.70901C31.5465 6.27914 31.6815 6.89051 31.6831 7.50822C31.6831 10.1002 29.3689 12.2022 26.5164 12.2022C25.8323 12.2029 25.1548 12.0796 24.5234 11.8394C23.892 11.5991 23.3193 11.2467 22.8384 10.8027L15.6877 15.246C15.8868 16.1513 15.7892 17.0901 15.4069 17.945L23.2472 22.6474C24.1707 21.9601 25.3263 21.5855 26.5179 21.5872C27.1948 21.5859 27.8653 21.7063 28.4912 21.9415C29.1171 22.1767 29.6861 22.5221 30.1658 22.958C30.6454 23.3938 31.0263 23.9117 31.2866 24.4819C31.5469 25.0521 31.6817 25.6635 31.6831 26.2812C31.6831 28.8717 29.3689 30.9737 26.5164 30.9737C25.1496 30.9763 23.8377 30.4835 22.869 29.6035C21.9004 28.7235 21.3544 27.5285 21.3512 26.2812C21.35 25.6232 21.502 24.9724 21.797 24.3721L14.0184 19.7105C13.0764 20.458 11.8695 20.8686 10.6212 20.8664C9.9443 20.8679 9.27367 20.7476 8.64768 20.5125C8.02168 20.2774 7.45259 19.932 6.97292 19.4961C6.49325 19.0602 6.1124 18.5423 5.85213 17.972C5.59186 17.4017 5.45727 16.7902 5.45605 16.1724C5.45747 15.5548 5.59221 14.9435 5.85257 14.3733C6.11293 13.8032 6.49381 13.2855 6.97346 12.8497C7.45312 12.414 8.02214 12.0687 8.64803 11.8337C9.27393 11.5986 9.94443 11.4784 10.6212 11.4799C12.2627 11.4799 13.7222 12.174 14.6679 13.2553L21.5996 8.9485C21.4346 8.48324 21.3508 7.99722 21.3512 7.50822Z" fill="white"/>
</svg>
